<?xml version="1.0" encoding="UTF-8"?>
<svg id="Layer_1" data-name="Layer 1" xmlns="http://www.w3.org/2000/svg" viewBox="0 0 1812.4 2009.28">
  <defs>
    <style>
      .cls-1 {
        fill: #dbe020;
      }

      .cls-1, .cls-2, .cls-3, .cls-4, .cls-5, .cls-6 {
        stroke-width: 0px;
      }

      .cls-2 {
        fill: #a97c50;
      }

      .cls-3 {
        fill: #8b5e3c;
      }

      .cls-4 {
        fill: #b3d135;
      }

      .cls-5 {
        fill: #7cc142;
      }

      .cls-6 {
        fill: #c49a6c;
      }
    </style>
  </defs>
  <path class="cls-5" d="M51.94,1399.51C-31.75,1169.88-93.63,690.91,528.94,194.59,657.89,91.78,812.98,26.39,976.82,7.54c245.22-28.22,583.08,7.7,714.29,373.44,2.43,6.78,12.24,29,15.28,35.53,35.9,77.08,250.98,579.84-59.2,995.64-324.63,435.17-1035.94,888.81-1425.25,355.13-28.07-38.48-43.3-84.83-43.54-132.46-.95-189.08,56.24-713.41,657.49-1191.37,6.46-5.14,14.27-8.3,22.48-9.14,57.55-5.86,294.35-39.14,216.66-185.31-23.13-43.52-62.72-76.35-109.78-91-57.15-17.8-139.62-18.55-200.07,85.01-.46.8-.95,1.57-1.47,2.33-5.42,8-41.28,65.31-9.19,136.63,8.14,18.09,2.67,39.41-12.76,51.87-113.33,91.59-520.58,451.6-606.13,957.96-7.46,44.16-68.38,49.78-83.71,7.71Z"/>
  <path class="cls-3" d="M810.48,383.67s236.03,20.02,244.46-108.53l-86.4-209.68-234.97,91.67s-28.45,63.22,76.92,226.54Z"/>
  <path class="cls-2" d="M733.56,157.13s166.48,32.66,234.97-91.67c0,0-170.7-22.13-234.97,91.67Z"/>
  <path class="cls-6" d="M765.74,144.87s120.87,23.72,170.6-66.56c0,0-123.93-16.07-170.6,66.56Z"/>
  <path class="cls-6" d="M968.53,112.37l66.38,163.83s-2.11,18.97-12.64,28.45l-68.49-174.91,14.75-17.37Z"/>
  <path class="cls-4" d="M934.07,530.32c-98.39,96.51-579.14,587.02-653.14,1055.13-5.1,32.23,43.37,49.77,54.38,19.04,112.89-315.11,136.62-567.9,680.55-1062.18,12.63-11.48,24.45-23.97,26.26-40.94.96-9.02-2.88-4.9-26.92-2.69-19.38,1.79-67.24,18-81.13,31.63Z"/>
  <path class="cls-1" d="M1564.75,424.65c108.74,264.8,409.91,993.13-750.73,1455.26-14.83,5.9-25.13-15.07-11.38-23.16,315.85-186.05,940.02-660.86,728.66-1418.13-5.8-20.79,25.25-33.92,33.45-13.96Z"/>
</svg>